<svg id="Laag_1" xmlns="http://www.w3.org/2000/svg" viewBox="0 0 60.1 99.6"><style>.icon-liftov-st0{fill:#201747}</style><path class="icon-liftov-st0" d="M30 93.1c-4.1 0-24.4.2-24.4 3.2 0 3.1 20.3 3.2 24.4 3.2s24.4-.2 24.4-3.2c-.1-3-20.4-3.2-24.4-3.2zM39.7 1.6C32.1-1 24-.4 16.8 3.1 9.6 6.7 4.2 12.8 1.6 20.4-1 28-.4 36.1 3.1 43.3c3.1 6.4 8.3 11.3 14.8 14.2 6 2.5 4.7 7.8 5.1 10.8.1.9.8.6 1.3.3C26.8 67 27.2 65 43.4 57c7.2-3.5 12.6-9.7 15.2-17.3 2.6-7.6 2-15.7-1.5-22.9-3.7-7.2-9.8-12.6-17.4-15.2zm-9.2 40.6c-7 0-12.6-5.6-12.6-12.6S23.5 17 30.5 17s12.6 5.6 12.6 12.6-5.7 12.6-12.6 12.6z"/></svg>
